<?xml version="1.0" encoding="UTF-8" standalone="no"?>
<!-- Created with Inkscape (http://www.inkscape.org/) -->

<svg
   xmlns:dc="http://purl.org/dc/elements/1.1/"
   xmlns:cc="http://creativecommons.org/ns#"
   xmlns:rdf="http://www.w3.org/1999/02/22-rdf-syntax-ns#"
   xmlns:svg="http://www.w3.org/2000/svg"
   xmlns="http://www.w3.org/2000/svg"
   xmlns:sodipodi="http://sodipodi.sourceforge.net/DTD/sodipodi-0.dtd"
   xmlns:inkscape="http://www.inkscape.org/namespaces/inkscape"
   width="43.427395mm"
   height="19.959856mm"
   viewBox="0 0 153.8766 70.723899"
   id="svg2"
   version="1.1"
   inkscape:version="0.91 r13725"
   sodipodi:docname="logo.svg">
  <defs
     id="defs4" />
  <sodipodi:namedview
     id="base"
     pagecolor="#ffffff"
     bordercolor="#666666"
     borderopacity="1.0"
     inkscape:pageopacity="0.0"
     inkscape:pageshadow="2"
     inkscape:zoom="3.77"
     inkscape:cx="103.16937"
     inkscape:cy="12.370167"
     inkscape:document-units="px"
     inkscape:current-layer="layer1"
     showgrid="false"
     inkscape:window-width="1280"
     inkscape:window-height="649"
     inkscape:window-x="0"
     inkscape:window-y="25"
     inkscape:window-maximized="1"
     fit-margin-top="0"
     fit-margin-left="0"
     fit-margin-right="0"
     fit-margin-bottom="0" />
  <metadata
     id="metadata7">
    <rdf:RDF>
      <cc:Work
         rdf:about="">
        <dc:format>image/svg+xml</dc:format>
        <dc:type
           rdf:resource="http://purl.org/dc/dcmitype/StillImage" />
        <dc:title></dc:title>
      </cc:Work>
    </rdf:RDF>
  </metadata>
  <g
     inkscape:label="Layer 1"
     inkscape:groupmode="layer"
     id="layer1"
     transform="translate(-119.08882,-189.42634)">
    <g
       style="font-style:normal;font-variant:normal;font-weight:500;font-stretch:normal;font-size:45px;line-height:125%;font-family:Ubuntu;-inkscape-font-specification:'Ubuntu Medium';letter-spacing:0px;word-spacing:0px;fill:#800000;fill-opacity:1;stroke:none;stroke-width:1px;stroke-linecap:butt;stroke-linejoin:miter;stroke-opacity:1"
       id="text3340">
      <path
         d="m 141.35017,243.96327 q -3.51,0 -6.3,-1.08 -2.79,-1.08 -4.725,-3.15 -1.935,-2.115 -2.97,-5.13 -1.035,-3.015 -1.035,-6.93 0,-3.915 1.17,-6.93 1.215,-3.015 3.285,-5.085 2.07,-2.115 4.86,-3.195 2.79,-1.08 5.985,-1.08 1.935,0 3.51,0.315 1.575,0.27 2.745,0.63 1.17,0.36 1.935,0.765 0.765,0.405 1.08,0.585 l -1.665,4.635 q -1.08,-0.675 -3.105,-1.26 -1.98,-0.63 -4.32,-0.63 -2.025,0 -3.78,0.72 -1.755,0.675 -3.06,2.07 -1.26,1.395 -1.98,3.51 -0.72,2.115 -0.72,4.905 0,2.475 0.54,4.545 0.585,2.07 1.755,3.6 1.17,1.485 2.97,2.34 1.8,0.81 4.32,0.81 3.015,0 4.905,-0.585 1.89,-0.63 2.925,-1.17 l 1.53,4.635 q -0.54,0.36 -1.485,0.72 -0.9,0.36 -2.16,0.72 -1.26,0.315 -2.835,0.495 -1.575,0.225 -3.375,0.225 z"
         style=""
         id="path3496" />
    </g>
    <g
       style="font-style:normal;font-variant:normal;font-weight:500;font-stretch:normal;font-size:45px;line-height:125%;font-family:Ubuntu;-inkscape-font-specification:'Ubuntu Medium';letter-spacing:0px;word-spacing:0px;fill:#000000;fill-opacity:1;stroke:none;stroke-width:1px;stroke-linecap:butt;stroke-linejoin:miter;stroke-opacity:1"
       id="text3336">
      <path
         d="m 131.32882,228.88696 q -3.195,0 -5.49,-0.9 -2.295,-0.945 -3.825,-2.61 -1.485,-1.665 -2.205,-3.915 -0.72,-2.25 -0.72,-4.95 l 0,-19.485 5.715,0 0,18.945 q 0,2.115 0.45,3.645 0.495,1.485 1.35,2.43 0.9,0.945 2.07,1.395 1.215,0.45 2.7,0.45 1.485,0 2.7,-0.45 1.215,-0.45 2.07,-1.395 0.9,-0.945 1.35,-2.43 0.495,-1.53 0.495,-3.645 l 0,-18.945 5.715,0 0,19.485 q 0,2.7 -0.765,4.95 -0.72,2.25 -2.25,3.915 -1.485,1.665 -3.825,2.61 -2.34,0.9 -5.535,0.9 z"
         style=""
         id="path3490" />
    </g>
    <g
       style="font-style:normal;font-variant:normal;font-weight:500;font-stretch:normal;font-size:45px;line-height:125%;font-family:Ubuntu;-inkscape-font-specification:'Ubuntu Medium';letter-spacing:0px;word-spacing:0px;fill:#000000;fill-opacity:1;stroke:none;stroke-width:1px;stroke-linecap:butt;stroke-linejoin:miter;stroke-opacity:1"
       id="text3344">
      <path
         d="m 150.94186,260.15024 q -0.63,-1.845 -1.305,-3.645 -0.675,-1.8 -1.305,-3.69 l -13.14,0 q -0.63,1.89 -1.305,3.735 -0.63,1.8 -1.26,3.6 l -5.895,0 q 1.755,-4.995 3.33,-9.225 1.575,-4.23 3.06,-8.01 1.53,-3.78 3.015,-7.2 1.485,-3.42 3.06,-6.75 l 5.355,0 q 1.575,3.33 3.06,6.75 1.485,3.42 2.97,7.2 1.53,3.78 3.105,8.01 1.62,4.23 3.375,9.225 l -6.12,0 z m -9.18,-25.155 q -1.035,2.385 -2.385,5.805 -1.305,3.42 -2.745,7.425 l 10.26,0 q -1.44,-4.005 -2.79,-7.47 -1.35,-3.465 -2.34,-5.76 z"
         style=""
         id="path3493" />
    </g>
    <g
       transform="scale(1.1200753,0.89279712)"
       style="font-style:normal;font-variant:normal;font-weight:bold;font-stretch:normal;font-size:35.71188736px;line-height:125%;font-family:sans-serif;-inkscape-font-specification:'sans-serif Bold';letter-spacing:-2.08999991px;word-spacing:0px;fill:#000000;fill-opacity:1;stroke:none;stroke-width:1px;stroke-linecap:butt;stroke-linejoin:miter;stroke-opacity:1"
       id="text3348">
      <path
         d="m 130.25466,220.48371 q 1.15617,-0.34373 2.49983,-0.56247 1.34366,-0.24998 2.46858,-0.24998 1.21867,0 2.2186,0.34373 0.99994,0.31248 1.68739,1.09367 0.7187,0.7812 1.09368,2.12486 0.40622,1.31241 0.40622,3.28103 l 0,9.90559 -2.68732,0 0,-9.68685 q 0,-2.43734 -0.62496,-3.56226 -0.62495,-1.12493 -2.34359,-1.12493 -0.90619,0 -2.03111,0.31248 l 0,14.06156 -2.68732,0 0,-15.93643 z"
         style="font-style:normal;font-variant:normal;font-weight:normal;font-stretch:normal;font-size:31.24790001px;font-family:'Ubuntu Condensed';-inkscape-font-specification:'Ubuntu Condensed, ';letter-spacing:-2.08999991px"
         id="path3444" />
      <path
         d="m 145.92665,236.42014 -2.68732,0 0,-16.40515 2.68732,0 0,16.40515 z m -1.34366,-19.31121 q -0.7187,0 -1.24992,-0.46872 -0.49996,-0.49996 -0.49996,-1.31241 0,-0.81244 0.49996,-1.28116 0.53122,-0.49997 1.24992,-0.49997 0.7187,0 1.21867,0.49997 0.53121,0.46872 0.53121,1.28116 0,0.81245 -0.53121,1.31241 -0.49997,0.46872 -1.21867,0.46872 z"
         style="font-style:normal;font-variant:normal;font-weight:normal;font-stretch:normal;font-size:31.24790001px;font-family:'Ubuntu Condensed';-inkscape-font-specification:'Ubuntu Condensed, ';letter-spacing:-2.08999991px"
         id="path3446" />
      <path
         d="m 151.21701,220.01499 4.12472,0 0,2.31234 -4.12472,0 0,9.03065 q 0,1.68738 0.59371,2.37484 0.62496,0.6562 1.65614,0.6562 0.53121,0 0.99993,-0.15624 0.49997,-0.15624 0.8437,-0.37497 l 0.53121,2.1561 q -1.28116,0.74995 -2.71857,0.74995 -2.31234,0 -3.46851,-1.28116 -1.12493,-1.31241 -1.12493,-4.31221 l 0,-15.56146 2.68732,-0.46871 0,4.87467 z"
         style="font-style:normal;font-variant:normal;font-weight:normal;font-stretch:normal;font-size:31.24790001px;font-family:'Ubuntu Condensed';-inkscape-font-specification:'Ubuntu Condensed, ';letter-spacing:-2.08999991px"
         id="path3448" />
      <path
         d="m 158.29681,229.01438 q 0.0312,1.18742 0.21873,2.18736 0.18749,0.96868 0.59371,1.71863 0.43747,0.7187 1.12493,1.12493 0.7187,0.40622 1.81237,0.40622 0.90619,0 1.65614,-0.24999 0.7812,-0.28123 1.12493,-0.46871 l 0.49996,2.1561 q -0.40622,0.28123 -1.3749,0.59371 -0.93744,0.34373 -2.24985,0.34373 -1.71864,0 -2.90606,-0.62496 -1.15617,-0.62496 -1.90612,-1.74988 -0.7187,-1.12493 -1.03118,-2.68732 -0.31248,-1.5624 -0.31248,-3.43727 0,-4.53095 1.4999,-6.62456 1.4999,-2.0936 3.96848,-2.0936 2.78107,0 3.93724,2.0936 1.15617,2.09361 1.15617,5.87461 0,0.34373 0,0.7187 0,0.34373 -0.0312,0.7187 l -7.78072,0 z m 2.71856,-7.12452 q -1.34366,0 -1.96861,1.34366 -0.59371,1.34366 -0.71871,3.59351 l 4.96842,0 q 0,-2.2811 -0.46872,-3.59351 -0.46872,-1.34366 -1.81238,-1.34366 z"
         style="font-style:normal;font-variant:normal;font-weight:normal;font-stretch:normal;font-size:31.24790001px;font-family:'Ubuntu Condensed';-inkscape-font-specification:'Ubuntu Condensed, ';letter-spacing:-2.08999991px"
         id="path3450" />
      <path
         d="m 175.03513,222.48357 q -0.90619,-0.49996 -1.93737,-0.49996 -0.7812,0 -1.37491,0.31247 -0.59371,0.31248 -1.03118,1.03119 -0.40622,0.7187 -0.62495,1.90612 -0.21874,1.18742 -0.21874,2.9373 0,3.37477 0.87494,4.84342 0.90619,1.43741 2.71857,1.43741 0.34373,0 0.74995,-0.0312 0.40622,-0.0625 0.84369,-0.18749 l 0,-11.74921 z m 0,-9.84309 2.68732,-0.46871 0,23.81089 q -0.87494,0.37498 -1.99986,0.59371 -1.12493,0.24999 -2.2811,0.24999 -3.37477,0 -4.90592,-2.15611 -1.4999,-2.1561 -1.4999,-6.49956 0,-1.96862 0.31248,-3.53101 0.34373,-1.59365 1.03118,-2.68732 0.7187,-1.12493 1.81238,-1.71864 1.09367,-0.62495 2.59357,-0.62495 0.7187,0 1.21867,0.15623 0.53122,0.125 1.03118,0.37498 l 0,-7.4995 z"
         style="font-style:normal;font-variant:normal;font-weight:normal;font-stretch:normal;font-size:31.24790001px;font-family:'Ubuntu Condensed';-inkscape-font-specification:'Ubuntu Condensed, ';letter-spacing:-2.08999991px"
         id="path3452" />
    </g>
    <g
       style="font-style:normal;font-variant:normal;font-weight:bold;font-stretch:normal;font-size:40px;line-height:125%;font-family:sans-serif;-inkscape-font-specification:'sans-serif Bold';letter-spacing:-2.08999991px;word-spacing:0px;fill:#800000;fill-opacity:1;stroke:none;stroke-width:1px;stroke-linecap:butt;stroke-linejoin:miter;stroke-opacity:1"
       id="text3352">
      <path
         d="m 163.81072,227.00996 q 0,2.17 -0.385,3.955 -0.385,1.75 -1.19,3.01 -0.77,1.26 -1.995,1.96 -1.19,0.7 -2.835,0.7 -1.645,0 -2.87,-0.7 -1.225,-0.7 -2.03,-1.96 -0.77,-1.26 -1.155,-3.01 -0.385,-1.785 -0.385,-3.955 0,-2.135 0.385,-3.92 0.385,-1.785 1.155,-3.045 0.805,-1.295 2.03,-1.995 1.225,-0.7 2.87,-0.7 1.645,0 2.835,0.7 1.225,0.7 1.995,1.995 0.805,1.26 1.19,3.045 0.385,1.785 0.385,3.92 z m -3.15,0 q 0,-1.54 -0.175,-2.8 -0.175,-1.295 -0.56,-2.205 -0.385,-0.945 -1.015,-1.435 -0.63,-0.525 -1.505,-0.525 -0.91,0 -1.54,0.525 -0.595,0.49 -1.015,1.435 -0.385,0.91 -0.56,2.205 -0.175,1.26 -0.175,2.8 0,1.54 0.175,2.835 0.175,1.26 0.56,2.17 0.42,0.91 1.015,1.435 0.63,0.49 1.54,0.49 0.875,0 1.505,-0.49 0.63,-0.525 1.015,-1.435 0.385,-0.91 0.56,-2.17 0.175,-1.295 0.175,-2.835 z"
         style="font-style:normal;font-variant:normal;font-weight:normal;font-stretch:normal;font-size:35px;font-family:'Ubuntu Condensed';-inkscape-font-specification:'Ubuntu Condensed, ';letter-spacing:-2.08999991px;fill:#800000"
         id="path3455" />
      <path
         d="m 166.12689,218.32996 q 1.295,-0.385 2.8,-0.63 1.505,-0.28 2.765,-0.28 1.365,0 2.485,0.385 1.12,0.35 1.89,1.225 0.805,0.875 1.225,2.38 0.455,1.47 0.455,3.675 l 0,11.095 -3.01,0 0,-10.85 q 0,-2.73 -0.7,-3.99 -0.7,-1.26 -2.625,-1.26 -1.015,0 -2.275,0.35 l 0,15.75 -3.01,0 0,-17.85 z"
         style="font-style:normal;font-variant:normal;font-weight:normal;font-stretch:normal;font-size:35px;font-family:'Ubuntu Condensed';-inkscape-font-specification:'Ubuntu Condensed, ';letter-spacing:-2.08999991px;fill:#800000"
         id="path3457" />
      <path
         d="m 183.47666,234.04496 q 1.33,0 1.995,-0.735 0.7,-0.77 0.7,-1.995 0,-0.77 -0.28,-1.295 -0.28,-0.56 -0.735,-0.98 -0.455,-0.42 -1.05,-0.735 -0.595,-0.35 -1.19,-0.735 -0.595,-0.35 -1.155,-0.805 -0.56,-0.49 -1.015,-1.085 -0.42,-0.63 -0.7,-1.4 -0.245,-0.805 -0.245,-1.855 0,-2.275 1.4,-3.675 1.435,-1.4 3.85,-1.4 1.015,0 1.925,0.28 0.91,0.245 1.505,0.56 l -0.665,2.415 q -0.63,-0.35 -1.26,-0.525 -0.63,-0.175 -1.365,-0.175 -1.12,0 -1.785,0.665 -0.665,0.63 -0.665,1.855 0,0.7 0.245,1.225 0.245,0.49 0.63,0.91 0.42,0.385 0.91,0.735 0.525,0.35 1.085,0.665 0.665,0.385 1.295,0.84 0.665,0.455 1.155,1.085 0.525,0.595 0.84,1.435 0.315,0.805 0.315,1.96 0,2.415 -1.435,3.885 -1.4,1.47 -4.13,1.47 -1.4,0 -2.52,-0.385 -1.12,-0.385 -1.68,-0.7 l 0.63,-2.485 q 0.525,0.28 1.4,0.63 0.91,0.35 1.995,0.35 z"
         style="font-style:normal;font-variant:normal;font-weight:normal;font-stretch:normal;font-size:35px;font-family:'Ubuntu Condensed';-inkscape-font-specification:'Ubuntu Condensed, ';letter-spacing:-2.08999991px;fill:#800000"
         id="path3459" />
      <path
         d="m 202.16955,235.65496 q -0.455,0.175 -1.12,0.35 -0.63,0.14 -1.365,0.245 -0.7,0.14 -1.435,0.21 -0.7,0.105 -1.295,0.105 -1.435,0 -2.625,-0.35 -1.19,-0.315 -2.03,-1.155 -0.84,-0.84 -1.295,-2.275 -0.455,-1.47 -0.455,-3.675 l 0,-11.305 3.01,0 0,11.2 q 0,2.695 0.805,3.815 0.84,1.085 2.52,1.085 0.56,0 1.12,-0.035 0.56,-0.07 1.155,-0.245 l 0,-15.82 3.01,0 0,17.85 z"
         style="font-style:normal;font-variant:normal;font-weight:normal;font-stretch:normal;font-size:35px;font-family:'Ubuntu Condensed';-inkscape-font-specification:'Ubuntu Condensed, ';letter-spacing:-2.08999991px;fill:#800000"
         id="path3461" />
      <path
         d="m 205.52095,218.32996 q 1.225,-0.385 2.66,-0.63 1.435,-0.28 2.625,-0.28 1.225,0 2.205,0.315 1.015,0.315 1.785,1.05 0.91,-0.595 1.96,-0.98 1.05,-0.385 2.31,-0.385 1.26,0 2.275,0.385 1.05,0.35 1.785,1.225 0.735,0.875 1.155,2.38 0.42,1.47 0.42,3.675 l 0,11.095 -3.01,0 0,-10.85 q 0,-2.73 -0.63,-3.99 -0.63,-1.26 -2.38,-1.26 -0.665,0 -1.365,0.245 -0.665,0.245 -1.26,0.665 0.28,0.805 0.42,1.82 0.14,1.015 0.14,2.275 l 0,11.095 -3.01,0 0,-10.85 q 0,-2.73 -0.63,-3.99 -0.63,-1.26 -2.38,-1.26 -0.91,0 -2.065,0.35 l 0,15.75 -3.01,0 0,-17.85 z"
         style="font-style:normal;font-variant:normal;font-weight:normal;font-stretch:normal;font-size:35px;font-family:'Ubuntu Condensed';-inkscape-font-specification:'Ubuntu Condensed, ';letter-spacing:-2.08999991px;fill:#800000"
         id="path3463" />
      <path
         d="m 229.90026,227.88496 q 0.035,1.33 0.245,2.45 0.21,1.085 0.665,1.925 0.49,0.805 1.26,1.26 0.805,0.455 2.03,0.455 1.015,0 1.855,-0.28 0.875,-0.315 1.26,-0.525 l 0.56,2.415 q -0.455,0.315 -1.54,0.665 -1.05,0.385 -2.52,0.385 -1.925,0 -3.255,-0.7 -1.295,-0.7 -2.135,-1.96 -0.805,-1.26 -1.155,-3.01 -0.35,-1.75 -0.35,-3.85 0,-5.075 1.68,-7.42 1.68,-2.345 4.445,-2.345 3.115,0 4.41,2.345 1.295,2.345 1.295,6.58 0,0.385 0,0.805 0,0.385 -0.035,0.805 l -8.715,0 z m 3.045,-7.98 q -1.505,0 -2.205,1.505 -0.665,1.505 -0.805,4.025 l 5.565,0 q 0,-2.555 -0.525,-4.025 -0.525,-1.505 -2.03,-1.505 z"
         style="font-style:normal;font-variant:normal;font-weight:normal;font-stretch:normal;font-size:35px;font-family:'Ubuntu Condensed';-inkscape-font-specification:'Ubuntu Condensed, ';letter-spacing:-2.08999991px;fill:#800000"
         id="path3465" />
      <path
         d="m 248.93439,220.53496 q -1.12,-0.49 -2.52,-0.49 -1.295,0 -2.415,0.455 l 0,15.68 -3.01,0 0,-17.57 q 1.015,-0.49 2.31,-0.805 1.33,-0.35 2.905,-0.35 0.84,0 1.68,0.105 0.84,0.105 1.575,0.385 l -0.525,2.59 z"
         style="font-style:normal;font-variant:normal;font-weight:normal;font-stretch:normal;font-size:35px;font-family:'Ubuntu Condensed';-inkscape-font-specification:'Ubuntu Condensed, ';letter-spacing:-2.08999991px;fill:#800000"
         id="path3467" />
      <path
         d="m 252.93877,234.04496 q 1.33,0 1.995,-0.735 0.7,-0.77 0.7,-1.995 0,-0.77 -0.28,-1.295 -0.28,-0.56 -0.735,-0.98 -0.455,-0.42 -1.05,-0.735 -0.595,-0.35 -1.19,-0.735 -0.595,-0.35 -1.155,-0.805 -0.56,-0.49 -1.015,-1.085 -0.42,-0.63 -0.7,-1.4 -0.245,-0.805 -0.245,-1.855 0,-2.275 1.4,-3.675 1.435,-1.4 3.85,-1.4 1.015,0 1.925,0.28 0.91,0.245 1.505,0.56 l -0.665,2.415 q -0.63,-0.35 -1.26,-0.525 -0.63,-0.175 -1.365,-0.175 -1.12,0 -1.785,0.665 -0.665,0.63 -0.665,1.855 0,0.7 0.245,1.225 0.245,0.49 0.63,0.91 0.42,0.385 0.91,0.735 0.525,0.35 1.085,0.665 0.665,0.385 1.295,0.84 0.665,0.455 1.155,1.085 0.525,0.595 0.84,1.435 0.315,0.805 0.315,1.96 0,2.415 -1.435,3.885 -1.4,1.47 -4.13,1.47 -1.4,0 -2.52,-0.385 -1.12,-0.385 -1.68,-0.7 l 0.63,-2.485 q 0.525,0.28 1.4,0.63 0.91,0.35 1.995,0.35 z"
         style="font-style:normal;font-variant:normal;font-weight:normal;font-stretch:normal;font-size:35px;font-family:'Ubuntu Condensed';-inkscape-font-specification:'Ubuntu Condensed, ';letter-spacing:-2.08999991px;fill:#800000"
         id="path3469" />
    </g>
    <g
       transform="scale(1.0734982,0.93153394)"
       style="font-style:normal;font-variant:normal;font-weight:bold;font-stretch:normal;font-size:37.26135635px;line-height:125%;font-family:sans-serif;-inkscape-font-specification:'sans-serif Bold';letter-spacing:-2.08999991px;word-spacing:0px;fill:#000000;fill-opacity:1;stroke:none;stroke-width:1px;stroke-linecap:butt;stroke-linejoin:miter;stroke-opacity:1"
       id="text3356">
      <path
         d="m 147.06849,262.57762 q 1.14113,-0.35864 2.47788,-0.58686 1.33675,-0.26083 2.44528,-0.26083 1.14113,0 2.05403,0.29343 0.94551,0.29344 1.66279,0.97811 0.8477,-0.55426 1.82581,-0.9129 0.97811,-0.35864 2.15184,-0.35864 1.17373,0 2.11924,0.35864 0.97811,0.32604 1.66279,1.14113 0.68468,0.81509 1.07592,2.21705 0.39124,1.36935 0.39124,3.42339 l 0,10.33537 -2.80391,0 0,-10.10715 q 0,-2.54309 -0.58687,-3.71682 -0.58687,-1.17373 -2.21705,-1.17373 -0.61947,0 -1.27154,0.22823 -0.61947,0.22822 -1.17374,0.61947 0.26083,0.74988 0.39125,1.69539 0.13041,0.9455 0.13041,2.11924 l 0,10.33537 -2.80391,0 0,-10.10715 q 0,-2.54309 -0.58687,-3.71682 -0.58687,-1.17373 -2.21705,-1.17373 -0.8477,0 -1.92362,0.32604 l 0,14.67166 -2.80392,0 0,-16.62789 z"
         style="font-style:normal;font-variant:normal;font-weight:normal;font-stretch:normal;font-size:32.60368729px;line-height:125%;font-family:'Ubuntu Condensed';-inkscape-font-specification:'Ubuntu Condensed, Normal';text-align:start;letter-spacing:-2.08999991px;writing-mode:lr-tb;text-anchor:start"
         id="path3477" />
      <path
         d="m 169.63554,271.47843 q 0.0326,1.23894 0.22823,2.28226 0.19562,1.01071 0.61947,1.7932 0.45645,0.74989 1.17373,1.17374 0.74989,0.42384 1.89101,0.42384 0.94551,0 1.728,-0.26083 0.81509,-0.29343 1.17373,-0.48905 l 0.52166,2.24965 q -0.42385,0.29344 -1.43456,0.61947 -0.97811,0.35864 -2.34747,0.35864 -1.7932,0 -3.03214,-0.65207 -1.20634,-0.65207 -1.98882,-1.82581 -0.74989,-1.17373 -1.07593,-2.80391 -0.32603,-1.63019 -0.32603,-3.58641 0,-4.72753 1.56497,-6.91198 1.56498,-2.18445 4.14067,-2.18445 2.90173,0 4.10807,2.18445 1.20633,2.18445 1.20633,6.12949 0,0.35864 0,0.74989 0,0.35864 -0.0326,0.74988 l -8.11832,0 z m 2.83652,-7.43364 q -1.40196,0 -2.05403,1.40196 -0.61947,1.40196 -0.74988,3.74942 l 5.18398,0 q 0,-2.38007 -0.48905,-3.74942 -0.48906,-1.40196 -1.89102,-1.40196 z"
         style="font-style:normal;font-variant:normal;font-weight:normal;font-stretch:normal;font-size:32.60368729px;line-height:125%;font-family:'Ubuntu Condensed';-inkscape-font-specification:'Ubuntu Condensed, Normal';text-align:start;letter-spacing:-2.08999991px;writing-mode:lr-tb;text-anchor:start"
         id="path3479" />
      <path
         d="m 187.22339,264.63166 q -1.04331,-0.45645 -2.34746,-0.45645 -1.20634,0 -2.24966,0.42384 l 0,14.60646 -2.80391,0 0,-16.36706 q 0.9455,-0.45645 2.15184,-0.74988 1.23894,-0.32604 2.70611,-0.32604 0.78249,0 1.56497,0.0978 0.78249,0.0978 1.46717,0.35864 l -0.48906,2.41268 z"
         style="font-style:normal;font-variant:normal;font-weight:normal;font-stretch:normal;font-size:32.60368729px;line-height:125%;font-family:'Ubuntu Condensed';-inkscape-font-specification:'Ubuntu Condensed, Normal';text-align:start;letter-spacing:-2.08999991px;writing-mode:lr-tb;text-anchor:start"
         id="path3481" />
      <path
         d="m 191.23436,279.20551 -2.80392,0 0,-17.11694 2.80392,0 0,17.11694 z m -1.40196,-20.14908 q -0.74988,0 -1.30415,-0.48906 -0.52165,-0.52166 -0.52165,-1.36935 0,-0.8477 0.52165,-1.33675 0.55427,-0.52166 1.30415,-0.52166 0.74989,0 1.27155,0.52166 0.55426,0.48905 0.55426,1.33675 0,0.84769 -0.55426,1.36935 -0.52166,0.48906 -1.27155,0.48906 z"
         style="font-style:normal;font-variant:normal;font-weight:normal;font-stretch:normal;font-size:32.60368729px;line-height:125%;font-family:'Ubuntu Condensed';-inkscape-font-specification:'Ubuntu Condensed, Normal';text-align:start;letter-spacing:-2.08999991px;writing-mode:lr-tb;text-anchor:start"
         id="path3483" />
      <path
         d="m 199.45324,279.62935 q -1.7606,0 -2.93433,-0.68467 -1.17374,-0.68468 -1.92362,-1.85841 -0.71728,-1.20634 -1.04332,-2.83653 -0.29343,-1.63018 -0.29343,-3.5538 0,-4.23848 1.53237,-6.61855 1.56498,-2.41267 4.69493,-2.41267 0.94551,0 1.69539,0.22823 0.74989,0.22822 1.40196,0.58686 l -0.71728,2.31487 q -1.01071,-0.65208 -2.24965,-0.65208 -1.7606,0 -2.6083,1.59758 -0.81509,1.59758 -0.81509,4.95576 0,1.40196 0.16302,2.6083 0.16302,1.17373 0.55426,2.02143 0.42385,0.84769 1.07592,1.33675 0.68468,0.48905 1.728,0.48905 0.71728,0 1.27154,-0.16302 0.58687,-0.19562 1.10853,-0.48905 l 0.61947,2.18445 q -0.52166,0.35864 -1.40196,0.65207 -0.8477,0.29343 -1.85841,0.29343 z"
         style="font-style:normal;font-variant:normal;font-weight:normal;font-stretch:normal;font-size:32.60368729px;line-height:125%;font-family:'Ubuntu Condensed';-inkscape-font-specification:'Ubuntu Condensed, Normal';text-align:start;letter-spacing:-2.08999991px;writing-mode:lr-tb;text-anchor:start"
         id="path3485" />
      <path
         d="m 203.93339,262.44721 q 0.8477,-0.35864 1.7932,-0.55426 0.94551,-0.22823 2.05404,-0.22823 2.28225,0 3.71682,1.43456 1.43456,1.40196 1.43456,4.4015 l 0,11.34608 q -1.17373,0.32604 -2.41267,0.52166 -1.20634,0.19563 -2.38007,0.19563 -1.17374,0 -2.21705,-0.29344 -1.01072,-0.29343 -1.79321,-0.9455 -0.74988,-0.65208 -1.20633,-1.63019 -0.45645,-1.01071 -0.45645,-2.44528 0,-1.33675 0.39124,-2.31486 0.42385,-1.01071 1.14113,-1.66278 0.71728,-0.68468 1.69539,-1.01072 0.97811,-0.35864 2.11924,-0.35864 1.07592,0 2.38007,0.26083 l 0,-1.56498 q 0,-1.89101 -0.74989,-2.6409 -0.71728,-0.74988 -2.08663,-0.74988 -0.74989,0 -1.43456,0.16302 -0.65208,0.13041 -1.40196,0.45645 l -0.58687,-2.38007 z m 1.33675,11.76993 q 0,1.49977 0.78249,2.21705 0.78249,0.71728 2.21705,0.71728 0.8803,0 1.92362,-0.22822 l 0,-5.44482 q -0.97811,-0.26083 -1.92362,-0.26083 -0.61947,0 -1.17373,0.16302 -0.55426,0.13042 -0.97811,0.48906 -0.39125,0.32603 -0.61947,0.9129 -0.22823,0.55426 -0.22823,1.43456 z"
         style="font-style:normal;font-variant:normal;font-weight:normal;font-stretch:normal;font-size:32.60368729px;line-height:125%;font-family:'Ubuntu Condensed';-inkscape-font-specification:'Ubuntu Condensed, Normal';text-align:start;letter-spacing:-2.08999991px;writing-mode:lr-tb;text-anchor:start"
         id="path3487" />
    </g>
    <g
       style="font-style:normal;font-variant:normal;font-weight:500;font-stretch:normal;font-size:45px;line-height:125%;font-family:Ubuntu;-inkscape-font-specification:'Ubuntu Medium';letter-spacing:0px;word-spacing:0px;fill:#800000;fill-opacity:1;stroke:none;stroke-width:1px;stroke-linecap:butt;stroke-linejoin:miter;stroke-opacity:1"
       id="text3340-2">
      <path
         d="m 127.49017,220.74327 c 0.81,-2.01 1.905,-3.705 3.285,-5.085 1.38,-1.41 3,-2.475 4.86,-3.195 1.86,-0.72 3.855,-1.08 5.985,-1.08 1.29,0 2.46,0.105 3.51,0.315 1.05,0.18 1.965,0.39 2.745,0.63 0.78,0.24 1.425,0.495 1.935,0.765 0.51,0.27 0.87,0.465 1.08,0.585 l -1.665,4.635 c -0.72,-0.45 -1.755,-0.87 -3.105,-1.26 -1.32,-0.42 -2.76,-0.63 -4.32,-0.63 -1.35,0 -2.61,0.24 -3.78,0.72 -1.17,0.45 -2.19,1.14 -3.06,2.07 -0.84,0.93 -1.5,2.1 -1.98,3.51 -5.49,-1.98 0,0 -5.49,-1.98 z"
         id="path3379"
         inkscape:connector-curvature="0"
         sodipodi:nodetypes="ccsscsscccscccc" />
    </g>
    <g
       style="font-style:normal;font-variant:normal;font-weight:500;font-stretch:normal;font-size:45px;line-height:125%;font-family:Ubuntu;-inkscape-font-specification:'Ubuntu Medium';letter-spacing:0px;word-spacing:0px;fill:#800000;fill-opacity:1;stroke:none;stroke-width:1px;stroke-linecap:butt;stroke-linejoin:miter;stroke-opacity:1"
       id="text3340-0" />
    <g
       style="font-style:normal;font-variant:normal;font-weight:500;font-stretch:normal;font-size:45px;line-height:125%;font-family:Ubuntu;-inkscape-font-specification:'Ubuntu Medium';letter-spacing:0px;word-spacing:0px;fill:#800000;fill-opacity:1;stroke:none;stroke-width:1px;stroke-linecap:butt;stroke-linejoin:miter;stroke-opacity:1"
       id="text3340-5" />
    <g
       style="font-style:normal;font-variant:normal;font-weight:500;font-stretch:normal;font-size:45px;line-height:125%;font-family:Ubuntu;-inkscape-font-specification:'Ubuntu Medium';letter-spacing:0px;word-spacing:0px;fill:#800000;fill-opacity:1;stroke:none;stroke-width:1px;stroke-linecap:butt;stroke-linejoin:miter;stroke-opacity:1"
       id="text3340-9"
       transform="matrix(0.99902841,-0.0440708,0.0440708,0.99902841,-9.259258,6.3653821)">
      <path
         d="m 141.35017,243.96327 c -3.75465,-0.83287 -3.17699,-5.25074 0.495,-5.04 2.01,0 3.645,-0.195 4.905,-0.585 1.26,-0.42 2.235,-0.81 2.925,-1.17 l 1.53,4.635 c -0.36,0.24 -0.855,0.48 -1.485,0.72 -0.6,0.24 -1.32,0.48 -2.16,0.72 -0.84,0.21 -1.785,0.375 -2.835,0.495 -1.05,0.15 -2.175,0.225 -3.375,0.225 z"
         id="path3412"
         inkscape:connector-curvature="0"
         sodipodi:nodetypes="ccccccccc" />
    </g>
    <text
       xml:space="preserve"
       style="font-style:normal;font-variant:normal;font-weight:normal;font-stretch:normal;font-size:25px;line-height:125%;font-family:'Ubuntu Condensed';-inkscape-font-specification:'Ubuntu Condensed, ';letter-spacing:0px;word-spacing:0px;fill:#000000;fill-opacity:1;stroke:none;stroke-width:1px;stroke-linecap:butt;stroke-linejoin:miter;stroke-opacity:1"
       x="108.18966"
       y="249.776"
       id="text3416"
       sodipodi:linespacing="125%"><tspan
         sodipodi:role="line"
         id="tspan3418"
         x="108.18966"
         y="249.776" /></text>
    <g
       style="font-style:normal;font-weight:normal;font-size:40px;line-height:125%;font-family:sans-serif;letter-spacing:0px;word-spacing:0px;fill:#000000;fill-opacity:1;stroke:none;stroke-width:1px;stroke-linecap:butt;stroke-linejoin:miter;stroke-opacity:1;opacity:0.5"
       id="text3420">
      <path
         d="m 267.56776,232.14524 q 0,0.93 -0.27,1.68 -0.27,0.75 -0.765,1.29 -0.48,0.54 -1.155,0.84 -0.675,0.285 -1.47,0.285 -0.795,0 -1.47,-0.285 -0.675,-0.3 -1.17,-0.84 -0.48,-0.54 -0.75,-1.29 -0.27,-0.75 -0.27,-1.68 0,-0.915 0.27,-1.665 0.27,-0.765 0.75,-1.305 0.495,-0.54 1.17,-0.825 0.675,-0.3 1.47,-0.3 0.795,0 1.47,0.3 0.675,0.285 1.155,0.825 0.495,0.54 0.765,1.305 0.27,0.75 0.27,1.665 z m -1.455,0 q 0,-1.32 -0.6,-2.085 -0.585,-0.78 -1.605,-0.78 -1.02,0 -1.62,0.78 -0.585,0.765 -0.585,2.085 0,1.32 0.585,2.1 0.6,0.765 1.62,0.765 1.02,0 1.605,-0.765 0.6,-0.78 0.6,-2.1 z"
         style="font-style:normal;font-variant:normal;font-weight:normal;font-stretch:normal;font-size:15px;font-family:Ubuntu;-inkscape-font-specification:Ubuntu;letter-spacing:-1.29000008px"
         id="path3472" />
      <path
         d="m 271.28541,224.40524 q 0.615,0 1.05,0.09 0.45,0.09 0.63,0.165 l -0.255,1.2 q -0.18,-0.09 -0.51,-0.165 -0.33,-0.09 -0.81,-0.09 -0.975,0 -1.365,0.54 -0.39,0.525 -0.39,1.425 l 0,0.675 3,0 0,1.17 -3,0 0,6.63 -1.395,0 0,-8.505 q 0,-1.5 0.735,-2.31 0.735,-0.825 2.31,-0.825 z"
         style="font-style:normal;font-variant:normal;font-weight:normal;font-stretch:normal;font-size:15px;font-family:Ubuntu;-inkscape-font-specification:Ubuntu;letter-spacing:-1.29000008px"
         id="path3474" />
    </g>
  </g>
</svg>
